# File created by Blade
# Date/Time:  Thu Mar 15 16:00:31 2018
#---------------------------------------------------------
:version 1.10
:name HOM
:units
  mass 1.0
  length 1.000000
  angle deg
:documentation
     Acclaim Skeleton File
:root
   axis xyz
   order TX TY TZ RX RZ RY
   position 0.000000 0.000000 0.000000
   orientation 0 0 0
:bonedata
   begin
      id 1
      name Spine_dum
      direction 0.000000 0.554700 0.832050
      length 3.185137
      axis 0.0 0.0 0.0 xyz
   end
   begin
      id 2
      name RightUpLeg_dum
      direction -0.959879 0.000000 -0.280414
      length 3.741437
      axis 0.0 0.0 0.0 xyz
   end
   begin
      id 3
      name LeftUpLeg_dum
      direction 0.959879 0.000000 -0.280414
      length 3.741437
      axis 0.0 0.0 0.0 xyz
   end
   begin
      id 4
      name Spine
      direction 0.000000 0.173648 0.984808
      length 3.533592
      axis -10.0 0.0 0.0 xyz
      dof rx rz ry
   end
   begin
      id 5
      name Spine1
      direction 0.000000 0.087156 0.996195
      length 3.533592
      axis -5.0 0.0 0.0 xyz
      dof rx rz ry
   end
   begin
      id 6
      name Spine2
      direction 0.000000 0.000000 1.000000
      length 3.533592
      axis 0.0 0.0 0.0 xyz
      dof rx rz ry
   end
   begin
      id 7
      name Spine3
      direction 0.000000 -0.141421 0.989949
      length 0.000000
      axis 0.0 0.0 0.0 xyz
      dof rx rz ry
   end
   begin
      id 8
      name Spine3_dum1
      direction 0.000000 -0.141421 0.989949
      length 9.369850
      axis 0.0 0.0 0.0 xyz
   end
   begin
      id 9
      name Spine3_dum2
      direction -0.174242 -0.290403 0.940907
      length 6.947577
      axis 0.0 0.0 0.0 xyz
   end
   begin
      id 10
      name Spine3_dum3
      direction 0.174242 -0.290403 0.940907
      length 6.947577
      axis 0.0 0.0 0.0 xyz
   end
   begin
      id 11
      name Neck
      direction 0.000000 -0.173648 0.984808
      length 4.858689
      axis 10.0 0.0 0.0 xyz
      dof rx rz ry
   end
   begin
      id 12
      name Head
      direction 0.000000 0.000000 1.000000
      length 5.720002
      axis 0.0 0.0 0.0 xyz
      dof rx rz ry
   end
   begin
      id 13
      name RightShoulder
      direction -1.000000 0.000000 0.000000
      length 6.012446
      axis -180.0 0.0 -180.0 xyz
      dof rz rx ry
   end
   begin
      id 14
      name RightArm
      direction -1.000000 0.000000 0.000000
      length 11.728112
      axis -180.0 0.0 -180.0 xyz
      dof ry rz rx
   end
   begin
      id 15
      name RightForeArm
      direction -1.000000 0.000000 0.000000
      length 4.841601
      axis -180.0 0.0 -180.0 xyz
      dof rx ry rz
   end
   begin
      id 16
      name RightForeArmRoll
      direction -1.000000 0.000000 0.000000
      length 5.003964
      axis -180.0 0.0 -180.0 xyz
      dof rx ry rz
   end
   begin
      id 17
      name RightHand
      direction -1.000000 0.000000 0.000000
      length 0.000000
      axis -180.0 0.0 -180.0 xyz
      dof rx ry rz
   end
   begin
      id 18
      name RightHand_dum1
      direction -1.000000 0.000000 0.000000
      length 2.836875
      axis -180.0 0.0 -180.0 xyz
   end
   begin
      id 19
      name RightHand_dum2
      direction -0.486664 -0.811107 -0.324443
      length 2.331690
      axis -180.0 0.0 -180.0 xyz
   end
   begin
      id 20
      name RightHandEnd
      direction -1.000000 0.000000 0.000000
      length 2.836875
      axis 90.0 0.0 -180.0 xyz
      dof rx ry rz
   end
   begin
      id 21
      name RightHandThumb1
      direction -0.965926 -0.258819 0.000000
      length 2.836875
      axis -10.0 0.0 -165.0 xyz
      dof rx ry rz
   end
   begin
      id 22
      name LeftShoulder
      direction 1.000000 0.000000 0.000000
      length 6.012446
      axis 0.0 0.0 0.0 xyz
      dof rz rx ry
   end
   begin
      id 23
      name LeftArm
      direction 1.000000 0.000000 0.000000
      length 11.728112
      axis 0.0 0.0 0.0 xyz
      dof ry rz rx
   end
   begin
      id 24
      name LeftForeArm
      direction 1.000000 0.000000 0.000000
      length 4.841601
      axis 0.0 0.0 0.0 xyz
      dof rx ry rz
   end
   begin
      id 25
      name LeftForeArmRoll
      direction 1.000000 0.000000 0.000000
      length 5.003964
      axis 0.0 0.0 0.0 xyz
      dof rx ry rz
   end
   begin
      id 26
      name LeftHand
      direction 1.000000 0.000000 0.000000
      length 0.000000
      axis 0.0 0.0 0.0 xyz
      dof rx ry rz
   end
   begin
      id 27
      name LeftHand_dum1
      direction 1.000000 0.000000 0.000000
      length 2.836875
      axis 0.0 0.0 0.0 xyz
   end
   begin
      id 28
      name LeftHand_dum2
      direction 0.486664 -0.811107 -0.324443
      length 2.331690
      axis 0.0 0.0 0.0 xyz
   end
   begin
      id 29
      name LeftHandEnd
      direction 1.000000 0.000000 0.000000
      length 2.836875
      axis 90.0 0.0 0.0 xyz
      dof rx ry rz
   end
   begin
      id 30
      name LeftHandThumb1
      direction 0.965926 -0.258819 0.000000
      length 2.836875
      axis 170.0 0.0 -15.0 xyz
      dof rx ry rz
   end
   begin
      id 31
      name RightUpLeg
      direction 0.000000 0.000000 -1.000000
      length 15.861483
      axis 0.0 90.0 0.0 xyz
      dof ry rz rx
   end
   begin
      id 32
      name RightLeg
      direction 0.000000 0.000000 -1.000000
      length 17.164458
      axis 0.0 90.0 0.0 xyz
      dof rx ry rz
   end
   begin
      id 33
      name RightFoot
      direction 0.000000 -0.939693 -0.342020
      length 7.211980
      axis -90.0 20.0 -90.0 xyz
      dof rx rz ry
   end
   begin
      id 34
      name RightToeBase
      direction 0.000000 -1.000000 0.000000
      length 2.905343
      axis -90.0 0.0 -90.0 xyz
      dof ry rz rx
   end
   begin
      id 35
      name LeftUpLeg
      direction 0.000000 0.000000 -1.000000
      length 15.861483
      axis 0.0 90.0 0.0 xyz
      dof ry rz rx
   end
   begin
      id 36
      name LeftLeg
      direction 0.000000 0.000000 -1.000000
      length 17.164458
      axis 0.0 90.0 0.0 xyz
      dof rx ry rz
   end
   begin
      id 37
      name LeftFoot
      direction 0.000000 -0.939693 -0.342020
      length 7.211980
      axis -90.0 20.0 -90.0 xyz
      dof rx rz ry
   end
   begin
      id 38
      name LeftToeBase
      direction 0.000000 -1.000000 0.000000
      length 2.905343
      axis -90.0 0.0 -90.0 xyz
      dof ry rz rx
   end
:hierarchy
   begin
      root Spine_dum RightUpLeg_dum LeftUpLeg_dum
      Spine_dum Spine
      RightUpLeg_dum RightUpLeg
      LeftUpLeg_dum LeftUpLeg
      Spine Spine1
      Spine1 Spine2
      Spine2 Spine3
      Spine3 Spine3_dum1 Spine3_dum2 Spine3_dum3
      Spine3_dum1 Neck
      Spine3_dum2 RightShoulder
      Spine3_dum3 LeftShoulder
      Neck Head
      RightShoulder RightArm
      RightArm RightForeArm
      RightForeArm RightForeArmRoll
      RightForeArmRoll RightHand
      RightHand RightHand_dum1 RightHand_dum2
      RightHand_dum1 RightHandEnd
      RightHand_dum2 RightHandThumb1
      LeftShoulder LeftArm
      LeftArm LeftForeArm
      LeftForeArm LeftForeArmRoll
      LeftForeArmRoll LeftHand
      LeftHand LeftHand_dum1 LeftHand_dum2
      LeftHand_dum1 LeftHandEnd
      LeftHand_dum2 LeftHandThumb1
      RightUpLeg RightLeg
      RightLeg RightFoot
      RightFoot RightToeBase
      LeftUpLeg LeftLeg
      LeftLeg LeftFoot
      LeftFoot LeftToeBase
   end

# File created by Blade
# Date/Time:  Thu Mar 15 15:59:21 2018
# Frame Rate: 120.000 fps
#------------------------------------------------------
:FULLY-SPECIFIED
:DEGREES
33
root -0.221358 38.211020 -0.774784 -89.203621 0.286474 -0.111236
Spine -0.277748 0.076730 0.406661
Spine1 -0.668717 -0.004805 0.009215
Spine2 1.371395 0.387145 0.528957
Spine3 0.130111 -0.099030 -0.406953
Neck -1.273765 -0.043199 0.067906
Head -0.984777 -1.069201 -0.161215
RightShoulder 0.906825 -4.438174 -6.006290
RightArm -67.849380 -18.643227 -9.075888
RightForeArm 0.000000 -0.000000 -31.287037
RightForeArmRoll 4.569137 -0.000000 -0.000000
RightHand 0.000000 7.997454 -3.109852
RightHandEnd 0.000000 -0.000000 0.000000
RightHandThumb1 0.000000 -0.000000 0.000000
LeftShoulder 3.036496 5.142414 6.371552
LeftArm 67.623184 -38.134327 1.897558
LeftForeArm 0.000000 -0.000000 -19.249403
LeftForeArmRoll -4.619946 -0.000000 0.000000
LeftHand 0.000000 -21.320019 0.999085
LeftHandEnd 0.000000 -0.000000 0.000000
LeftHandThumb1 0.000000 -0.000000 0.000000
RightUpLeg 4.306679 -1.429032 9.437278
RightLeg -0.000000 -0.000000 15.012418
RightFoot 3.885552 -15.104124 -2.154276
RightToeBase -0.000000 0.670407 -0.000000
LeftUpLeg -4.926134 0.801001 0.927190
LeftLeg -0.000000 -0.000000 11.068673
LeftFoot -8.171550 -12.705746 -0.669211
LeftToeBase -0.000000 0.909535 -0.000000
34
root -0.218828 38.209346 -0.769849 -89.218979 0.279929 -0.104384
Spine -0.284711 0.071826 0.398978
Spine1 -0.688041 -0.003949 0.024225
Spine2 1.435704 0.327986 0.489097
Spine3 0.134545 -0.083243 -0.404371
Neck -1.237798 -0.112039 0.126885
Head -1.058404 -0.995112 -0.202504
RightShoulder 0.850311 -4.418032 -5.957116
RightArm -67.897957 -18.630600 -9.044191
RightForeArm 0.000000 -0.000000 -31.269047
RightForeArmRoll 4.655794 -0.000000 -0.000000
RightHand -0.000000 8.010287 -3.174055
RightHandEnd 0.000000 -0.000000 0.000000
RightHandThumb1 0.000000 -0.000000 0.000000
LeftShoulder 3.077140 5.123319 6.399817
LeftArm 67.607780 -38.147335 1.902356
LeftForeArm 0.000000 -0.000000 -19.263037
LeftForeArmRoll -4.674389 -0.000000 0.000000
LeftHand 0.000000 -21.282463 0.994039
LeftHandEnd 0.000000 -0.000000 0.000000
LeftHandThumb1 0.000000 -0.000000 0.000000
RightUpLeg 4.296008 -1.417394 9.520321
RightLeg -0.000000 -0.000000 15.046290
RightFoot 3.901099 -15.101314 -2.130683
RightToeBase -0.000000 0.728014 -0.000000
LeftUpLeg -4.930515 0.829291 0.908677
LeftLeg -0.000000 -0.000000 11.054400
LeftFoot -8.171998 -12.700594 -0.644971
LeftToeBase -0.000000 0.926945 -0.000000
35
root -0.215091 38.209425 -0.767251 -89.208061 0.285232 -0.097995
Spine -0.282778 0.074308 0.399093
Spine1 -0.688449 -0.003340 0.027661
Spine2 1.429982 0.325540 0.480670
Spine3 0.135276 -0.078459 -0.402793
Neck -1.218828 -0.127781 0.129511
Head -1.063334 -0.996322 -0.197270
RightShoulder 0.859082 -4.423284 -5.959983
RightArm -67.897400 -18.620008 -9.030118
RightForeArm 0.000000 -0.000000 -31.278919
RightForeArmRoll 4.473457 -0.000000 -0.000000
RightHand 0.000000 7.926652 -3.106179
RightHandEnd 0.000000 -0.000000 0.000000
RightHandThumb1 0.000000 -0.000000 0.000000
LeftShoulder 3.068202 5.129227 6.427310
LeftArm 67.595528 -38.136543 1.890790
LeftForeArm 0.000000 -0.000000 -19.252874
LeftForeArmRoll -4.797807 -0.000000 0.000000
LeftHand -0.000000 -21.290560 0.922735
LeftHandEnd 0.000000 -0.000000 0.000000
LeftHandThumb1 0.000000 -0.000000 0.000000
RightUpLeg 4.298722 -1.421671 9.503467
RightLeg -0.000000 -0.000000 15.046458
RightFoot 3.891068 -15.099338 -2.093577
RightToeBase -0.000000 0.747247 -0.000000
LeftUpLeg -4.921394 0.817593 0.906128
LeftLeg -0.000000 -0.000000 11.058896
LeftFoot -8.155950 -12.690714 -0.639306
LeftToeBase -0.000000 0.925973 -0.000000
36
root -0.212642 38.211978 -0.763848 -89.204254 0.280801 -0.085161
Spine -0.273447 0.077172 0.400140
Spine1 -0.673938 -0.002988 0.023269
Spine2 1.417250 0.344275 0.481287
Spine3 0.127891 -0.075125 -0.407096
Neck -1.248835 -0.119901 0.127037
Head -1.014878 -1.013332 -0.190175
RightShoulder 0.888312 -4.410677 -5.951001
RightArm -67.909515 -18.618935 -9.040527
RightForeArm 0.000000 -0.000000 -31.284994
RightForeArmRoll 4.022918 -0.000000 -0.000000
RightHand -0.000000 7.758237 -2.933921
RightHandEnd 0.000000 -0.000000 0.000000
RightHandThumb1 0.000000 -0.000000 0.000000
LeftShoulder 3.037406 5.130891 6.449804
LeftArm 67.582420 -38.148438 1.894342
LeftForeArm 0.000000 -0.000000 -19.236765
LeftForeArmRoll -4.918957 -0.000000 0.000000
LeftHand 0.000000 -21.346983 0.840479
LeftHandEnd 0.000000 -0.000000 0.000000
LeftHandThumb1 0.000000 -0.000000 0.000000
RightUpLeg 4.289051 -1.406395 9.472077
RightLeg -0.000000 -0.000000 15.026793
RightFoot 3.926511 -15.100215 -2.057906
RightToeBase -0.000000 0.769101 -0.000000
LeftUpLeg -4.928154 0.817157 0.910433
LeftLeg -0.000000 -0.000000 11.057495
LeftFoot -8.153004 -12.680147 -0.628796
LeftToeBase -0.000000 0.924963 -0.000000
37
root -0.212693 38.215150 -0.760980 -89.194954 0.270482 -0.072727
Spine -0.269680 0.078180 0.404593
Spine1 -0.667369 -0.003435 0.020753
Spine2 1.408444 0.338514 0.473378
Spine3 0.128049 -0.075154 -0.411499
Neck -1.238574 -0.130518 0.094050
Head -1.005789 -1.025328 -0.157067
RightShoulder 0.890345 -4.405074 -5.955150
RightArm -67.911583 -18.633411 -9.039016
RightForeArm 0.000000 -0.000000 -31.283054
RightForeArmRoll 4.685946 -0.000000 -0.000000
RightHand -0.000000 7.987312 -3.217469
RightHandEnd 0.000000 -0.000000 0.000000
RightHandThumb1 0.000000 -0.000000 0.000000
LeftShoulder 3.037936 5.128528 6.460204
LeftArm 67.586212 -38.156467 1.889925
LeftForeArm 0.000000 -0.000000 -19.227705
LeftForeArmRoll -4.754662 -0.000000 0.000000
LeftHand 0.000000 -21.273413 0.959905
LeftHandEnd 0.000000 -0.000000 0.000000
LeftHandThumb1 0.000000 -0.000000 0.000000
RightUpLeg 4.272423 -1.395501 9.463395
RightLeg -0.000000 -0.000000 15.005290
RightFoot 3.920055 -15.087838 -2.031670
RightToeBase -0.000000 0.761518 -0.000000
LeftUpLeg -4.944784 0.801785 0.896634
LeftLeg -0.000000 -0.000000 11.068793
LeftFoot -8.130895 -12.667914 -0.594038
LeftToeBase -0.000000 0.870489 -0.000000
38
root -0.212675 38.215546 -0.760566 -89.178749 0.271473 -0.073952
Spine -0.269285 0.077149 0.403030
Spine1 -0.664961 -0.003481 0.019748
Spine2 1.401467 0.335996 0.476867
Spine3 0.126559 -0.076707 -0.407978
Neck -1.244711 -0.128677 0.123345
Head -0.990885 -1.023322 -0.216783
RightShoulder 0.877026 -4.395300 -5.964835
RightArm -67.917152 -18.621021 -9.033165
RightForeArm 0.000000 -0.000000 -31.282555
RightForeArmRoll 4.533169 -0.000000 -0.000000
RightHand 0.000000 7.939284 -3.131572
RightHandEnd 0.000000 -0.000000 0.000000
RightHandThumb1 0.000000 -0.000000 0.000000
LeftShoulder 3.040395 5.112066 6.450648
LeftArm 67.601196 -38.157642 1.891930
LeftForeArm 0.000000 -0.000000 -19.226192
LeftForeArmRoll -4.705684 -0.000000 0.000000
LeftHand -0.000000 -21.265154 0.992139
LeftHandEnd 0.000000 -0.000000 0.000000
LeftHandThumb1 0.000000 -0.000000 0.000000
RightUpLeg 4.269915 -1.410717 9.461656
RightLeg -0.000000 -0.000000 15.000684
RightFoot 3.906609 -15.076900 -2.009710
RightToeBase -0.000000 0.788399 -0.000000
LeftUpLeg -4.944099 0.783467 0.896901
LeftLeg -0.000000 -0.000000 11.072644
LeftFoot -8.135599 -12.663558 -0.585998
LeftToeBase -0.000000 0.887957 -0.000000
39
root -0.210043 38.213116 -0.761207 -89.157013 0.299824 -0.071738
Spine -0.258779 0.078274 0.407081
Spine1 -0.635333 -0.004787 0.002154
Spine2 1.343412 0.387091 0.543050
Spine3 0.120691 -0.102003 -0.407388
Neck -1.269477 -0.048431 0.044473
Head -0.947225 -1.082312 -0.160606
RightShoulder 0.920175 -4.397360 -6.020949
RightArm -67.879105 -18.657034 -9.039662
RightForeArm 0.000000 -0.000000 -31.262510
RightForeArmRoll 4.602826 -0.000000 -0.000000
RightHand -0.000000 7.958307 -3.157237
RightHandEnd 0.000000 -0.000000 0.000000
RightHandThumb1 0.000000 -0.000000 0.000000
LeftShoulder 3.030858 5.116308 6.392782
LeftArm 67.666298 -38.164036 1.846020
LeftForeArm 0.000000 -0.000000 -19.208397
LeftForeArmRoll -5.491148 -0.000000 0.000000
LeftHand -0.000000 -21.591124 0.424123
LeftHandEnd 0.000000 -0.000000 0.000000
LeftHandThumb1 0.000000 -0.000000 0.000000
RightUpLeg 4.318391 -1.413634 9.391492
RightLeg -0.000000 -0.000000 14.942125
RightFoot 3.922299 -15.070295 -2.053300
RightToeBase -0.000000 0.713358 -0.000000
LeftUpLeg -4.905402 0.752970 0.908758
LeftLeg -0.000000 -0.000000 11.085151
LeftFoot -8.134310 -12.657661 -0.604886
LeftToeBase -0.000000 0.910633 -0.000000
